<mxfile host="app.diagrams.net" modified="2024-03-26T07:00:06.384Z" agent="Mozilla/5.0 (Windows NT 10.0; Win64; x64) AppleWebKit/537.36 (KHTML, like Gecko) Chrome/123.0.0.0 Safari/537.36" etag="o1-4zJbQibPUNtNM4oPq" version="24.1.0" type="device" pages="2">
  <diagram name="assets" id="c9db0220-8083-56f3-ca83-edcdcd058819">
    <mxGraphModel dx="-10407" dy="820" grid="1" gridSize="10" guides="1" tooltips="1" connect="1" arrows="1" fold="1" page="1" pageScale="1.5" pageWidth="1600" pageHeight="900" background="none" math="0" shadow="0">
      <root>
        <mxCell id="0" style=";html=1;" />
        <mxCell id="1" style=";html=1;" parent="0" />
        <mxCell id="LfT25MS4hq6PeLbl5iaX-1" value="Assets" style="text;html=1;align=center;verticalAlign=middle;whiteSpace=wrap;rounded=0;fontFamily=Roboto;fontSource=https%3A%2F%2Ffonts.googleapis.com%2Fcss%3Ffamily%3DRoboto;fontSize=50;" vertex="1" parent="1">
          <mxGeometry x="12160" y="70" width="320" height="90" as="geometry" />
        </mxCell>
        <mxCell id="LfT25MS4hq6PeLbl5iaX-6" value="" style="shape=image;verticalLabelPosition=bottom;labelBackgroundColor=default;verticalAlign=top;aspect=fixed;imageAspect=0;image=https://www.mcqiulawyers.com.au/wp-content/uploads/2018/02/logo.png;" vertex="1" parent="1">
          <mxGeometry x="12260" y="210" width="428" height="82" as="geometry" />
        </mxCell>
        <mxCell id="LfT25MS4hq6PeLbl5iaX-7" value="Colours" style="text;html=1;align=center;verticalAlign=middle;whiteSpace=wrap;rounded=0;fontFamily=Roboto;fontSource=https%3A%2F%2Ffonts.googleapis.com%2Fcss%3Ffamily%3DRoboto;fontSize=25;" vertex="1" parent="1">
          <mxGeometry x="12080" y="340" width="190" height="90" as="geometry" />
        </mxCell>
        <mxCell id="LfT25MS4hq6PeLbl5iaX-8" value="Logo" style="text;html=1;align=center;verticalAlign=middle;whiteSpace=wrap;rounded=0;fontFamily=Roboto;fontSource=https%3A%2F%2Ffonts.googleapis.com%2Fcss%3Ffamily%3DRoboto;fontSize=25;" vertex="1" parent="1">
          <mxGeometry x="12070" y="216" width="190" height="90" as="geometry" />
        </mxCell>
        <mxCell id="LfT25MS4hq6PeLbl5iaX-9" value="&lt;font color=&quot;#fcfcfc&quot;&gt;#&lt;span style=&quot;background-color: transparent; font-size: 13px; text-align: left;&quot;&gt;247404&lt;/span&gt;&lt;/font&gt;" style="ellipse;whiteSpace=wrap;html=1;aspect=fixed;fillColor=#247404;strokeColor=none;fontFamily=Roboto;fontSource=https%3A%2F%2Ffonts.googleapis.com%2Fcss%3Ffamily%3DRoboto;" vertex="1" parent="1">
          <mxGeometry x="12270" y="345" width="80" height="80" as="geometry" />
        </mxCell>
        <mxCell id="LfT25MS4hq6PeLbl5iaX-10" value="#FFD489" style="ellipse;whiteSpace=wrap;html=1;aspect=fixed;fillColor=#FFD489;strokeColor=none;fontFamily=Roboto;fontSource=https%3A%2F%2Ffonts.googleapis.com%2Fcss%3Ffamily%3DRoboto;" vertex="1" parent="1">
          <mxGeometry x="12380" y="345" width="80" height="80" as="geometry" />
        </mxCell>
        <mxCell id="LfT25MS4hq6PeLbl5iaX-11" value="&lt;font style=&quot;font-size: 14px;&quot;&gt;Primary&lt;/font&gt;" style="text;html=1;align=center;verticalAlign=middle;whiteSpace=wrap;rounded=0;fontFamily=Roboto;fontSource=https%3A%2F%2Ffonts.googleapis.com%2Fcss%3Ffamily%3DRoboto;fontSize=14;" vertex="1" parent="1">
          <mxGeometry x="12257.5" y="430" width="105" height="40" as="geometry" />
        </mxCell>
        <mxCell id="LfT25MS4hq6PeLbl5iaX-12" value="&lt;font style=&quot;font-size: 14px;&quot;&gt;Secondary&lt;/font&gt;" style="text;html=1;align=center;verticalAlign=middle;whiteSpace=wrap;rounded=0;fontFamily=Roboto;fontSource=https%3A%2F%2Ffonts.googleapis.com%2Fcss%3Ffamily%3DRoboto;fontSize=14;" vertex="1" parent="1">
          <mxGeometry x="12367.5" y="430" width="105" height="40" as="geometry" />
        </mxCell>
        <mxCell id="LfT25MS4hq6PeLbl5iaX-13" value="#CD004D" style="ellipse;whiteSpace=wrap;html=1;aspect=fixed;fillColor=#CD004D;strokeColor=none;fontFamily=Roboto;fontSource=https%3A%2F%2Ffonts.googleapis.com%2Fcss%3Ffamily%3DRoboto;" vertex="1" parent="1">
          <mxGeometry x="12490" y="345" width="80" height="80" as="geometry" />
        </mxCell>
        <mxCell id="LfT25MS4hq6PeLbl5iaX-14" value="&lt;font style=&quot;font-size: 14px;&quot;&gt;Highlights&lt;/font&gt;" style="text;html=1;align=center;verticalAlign=middle;whiteSpace=wrap;rounded=0;fontFamily=Roboto;fontSource=https%3A%2F%2Ffonts.googleapis.com%2Fcss%3Ffamily%3DRoboto;fontSize=14;" vertex="1" parent="1">
          <mxGeometry x="12477.5" y="430" width="105" height="40" as="geometry" />
        </mxCell>
      </root>
    </mxGraphModel>
  </diagram>
  <diagram id="8i3EXRB4sAIUTVz9Crl-" name="home">
    <mxGraphModel dx="2049" dy="1054" grid="1" gridSize="10" guides="1" tooltips="1" connect="1" arrows="1" fold="1" page="1" pageScale="1" pageWidth="1600" pageHeight="900" math="0" shadow="0">
      <root>
        <mxCell id="0" />
        <mxCell id="1" parent="0" />
        <mxCell id="Xjx0grxreHXb90qruqwC-2" value="" style="strokeWidth=1;shadow=0;dashed=0;align=center;html=1;shape=mxgraph.mockup.containers.browserWindow;rSize=0;strokeColor=#666666;strokeColor2=#008cff;strokeColor3=#c4c4c4;mainText=,;recursiveResize=0;fontFamily=Montserrat;fontSource=https%3A%2F%2Ffonts.googleapis.com%2Fcss%3Ffamily%3DMontserrat;fillColor=none;" vertex="1" parent="1">
          <mxGeometry x="45" y="40" width="1510" height="1890" as="geometry" />
        </mxCell>
        <mxCell id="Xjx0grxreHXb90qruqwC-3" value="&lt;font data-font-src=&quot;https://fonts.googleapis.com/css?family=Montserrat&quot;&gt;McQiu Lawyers&lt;/font&gt;" style="strokeWidth=1;shadow=0;dashed=0;align=center;html=1;shape=mxgraph.mockup.containers.anchor;fontSize=17;fontColor=#666666;align=left;whiteSpace=wrap;fontFamily=Roboto;fontSource=https%3A%2F%2Ffonts.googleapis.com%2Fcss%3Ffamily%3DRoboto;" vertex="1" parent="Xjx0grxreHXb90qruqwC-2">
          <mxGeometry x="60" y="12" width="170" height="26" as="geometry" />
        </mxCell>
        <mxCell id="Xjx0grxreHXb90qruqwC-4" value="&lt;font data-font-src=&quot;https://fonts.googleapis.com/css?family=Roboto&quot; face=&quot;Roboto&quot;&gt;mcqiulawyers.com.au&lt;/font&gt;" style="strokeWidth=1;shadow=0;dashed=0;align=center;html=1;shape=mxgraph.mockup.containers.anchor;rSize=0;fontSize=17;fontColor=#666666;align=left;fontFamily=Montserrat;fontSource=https%3A%2F%2Ffonts.googleapis.com%2Fcss%3Ffamily%3DMontserrat;" vertex="1" parent="Xjx0grxreHXb90qruqwC-2">
          <mxGeometry x="130" y="60" width="250" height="26" as="geometry" />
        </mxCell>
        <mxCell id="8yPBcZ-2cWv9pClR8Q93-2" value="" style="shape=image;verticalLabelPosition=bottom;labelBackgroundColor=default;verticalAlign=top;aspect=fixed;imageAspect=0;image=https://www.mcqiulawyers.com.au/wp-content/uploads/2018/02/logo.png;" vertex="1" parent="Xjx0grxreHXb90qruqwC-2">
          <mxGeometry x="195" y="120" width="428" height="82" as="geometry" />
        </mxCell>
        <mxCell id="8yPBcZ-2cWv9pClR8Q93-3" value="&lt;font&gt;About Us&lt;/font&gt;" style="text;html=1;align=center;verticalAlign=middle;whiteSpace=wrap;rounded=0;fontSize=15;fontFamily=Montserrat;fontSource=https%3A%2F%2Ffonts.googleapis.com%2Fcss%3Ffamily%3DMontserrat;" vertex="1" parent="Xjx0grxreHXb90qruqwC-2">
          <mxGeometry x="1045" y="146" width="85" height="30" as="geometry" />
        </mxCell>
        <mxCell id="8yPBcZ-2cWv9pClR8Q93-7" value="&lt;font style=&quot;font-size: 15px;&quot;&gt;&lt;b&gt;Enquire&lt;/b&gt;&lt;/font&gt;" style="rounded=1;fillColor=#247404;strokeColor=none;html=1;whiteSpace=wrap;fontColor=#ffffff;align=center;verticalAlign=middle;fontStyle=0;fontSize=12;sketch=0;fontFamily=Montserrat;fontSource=https%3A%2F%2Ffonts.googleapis.com%2Fcss%3Ffamily%3DMontserrat;" vertex="1" parent="Xjx0grxreHXb90qruqwC-2">
          <mxGeometry x="1175" y="136.5" width="125" height="49" as="geometry" />
        </mxCell>
        <mxCell id="_FqBZBqTFO89XHhkPb4d-1" value="" style="verticalLabelPosition=bottom;shadow=0;dashed=0;align=center;html=1;verticalAlign=top;strokeWidth=2;shape=mxgraph.mockup.graphics.simpleIcon;strokeColor=none;fillColor=#bac8d3;" vertex="1" parent="Xjx0grxreHXb90qruqwC-2">
          <mxGeometry x="780" y="265" width="520" height="255" as="geometry" />
        </mxCell>
        <mxCell id="_FqBZBqTFO89XHhkPb4d-2" value="We&#39;re here with you&lt;div style=&quot;font-size: 15px; line-height: 200%;&quot;&gt;&lt;br&gt;&lt;/div&gt;&lt;div style=&quot;font-size: 15px; line-height: 200%;&quot;&gt;With a diverse range of legal services offered, our dedicated team can help you navigate your complex legal problems.&lt;/div&gt;" style="text;html=1;align=left;verticalAlign=top;whiteSpace=wrap;rounded=0;fontSize=50;fontFamily=Montserrat;fontSource=https%3A%2F%2Ffonts.googleapis.com%2Fcss%3Ffamily%3DMontserrat;horizontal=1;" vertex="1" parent="Xjx0grxreHXb90qruqwC-2">
          <mxGeometry x="215" y="270" width="515" height="250" as="geometry" />
        </mxCell>
        <mxCell id="e-P1rU9MizuhL_VrLOLM-3" value="" style="group" vertex="1" connectable="0" parent="Xjx0grxreHXb90qruqwC-2">
          <mxGeometry x="215" y="460" width="420" height="49" as="geometry" />
        </mxCell>
        <mxCell id="e-P1rU9MizuhL_VrLOLM-1" value="&lt;font style=&quot;font-size: 15px;&quot;&gt;&lt;b&gt;Enquire&lt;/b&gt;&lt;/font&gt;" style="rounded=1;fillColor=#247404;strokeColor=none;html=1;whiteSpace=wrap;fontColor=#ffffff;align=center;verticalAlign=middle;fontStyle=0;fontSize=12;sketch=0;fontFamily=Montserrat;fontSource=https%3A%2F%2Ffonts.googleapis.com%2Fcss%3Ffamily%3DMontserrat;" vertex="1" parent="e-P1rU9MizuhL_VrLOLM-3">
          <mxGeometry width="197.5" height="49" as="geometry" />
        </mxCell>
        <mxCell id="e-P1rU9MizuhL_VrLOLM-2" value="&lt;font color=&quot;#247404&quot; style=&quot;font-size: 15px;&quot;&gt;&lt;b style=&quot;&quot;&gt;Learn More&lt;/b&gt;&lt;/font&gt;" style="rounded=1;fillColor=none;strokeColor=#247404;html=1;whiteSpace=wrap;fontColor=#ffffff;align=center;verticalAlign=middle;fontStyle=0;fontSize=12;sketch=0;fontFamily=Montserrat;fontSource=https%3A%2F%2Ffonts.googleapis.com%2Fcss%3Ffamily%3DMontserrat;strokeWidth=2;" vertex="1" parent="e-P1rU9MizuhL_VrLOLM-3">
          <mxGeometry x="222.5" width="197.5" height="49" as="geometry" />
        </mxCell>
        <mxCell id="e-P1rU9MizuhL_VrLOLM-5" value="&lt;span style=&quot;color: rgb(0, 0, 0); font-family: Montserrat; font-style: normal; font-variant-ligatures: normal; font-variant-caps: normal; letter-spacing: normal; orphans: 2; text-align: left; text-indent: 0px; text-transform: none; widows: 2; word-spacing: 0px; -webkit-text-stroke-width: 0px; white-space: normal; background-color: rgb(251, 251, 251); text-decoration-thickness: initial; text-decoration-style: initial; text-decoration-color: initial; float: none; display: inline !important;&quot;&gt;&lt;b style=&quot;&quot;&gt;&lt;font style=&quot;font-size: 30px;&quot;&gt;We can help you with&lt;/font&gt;&lt;/b&gt;&lt;/span&gt;" style="text;whiteSpace=wrap;html=1;" vertex="1" parent="Xjx0grxreHXb90qruqwC-2">
          <mxGeometry x="209" y="640" width="400" height="50" as="geometry" />
        </mxCell>
        <mxCell id="e-P1rU9MizuhL_VrLOLM-84" value="" style="rounded=1;whiteSpace=wrap;html=1;arcSize=4;strokeColor=#247404;strokeWidth=2;" vertex="1" parent="Xjx0grxreHXb90qruqwC-2">
          <mxGeometry x="205" y="710" width="1095" height="590" as="geometry" />
        </mxCell>
        <mxCell id="e-P1rU9MizuhL_VrLOLM-92" value="" style="line;strokeWidth=2;rotatable=0;dashed=0;labelPosition=right;align=left;verticalAlign=middle;spacingTop=0;spacingLeft=6;points=[];portConstraint=eastwest;strokeColor=#247404;" vertex="1" parent="Xjx0grxreHXb90qruqwC-2">
          <mxGeometry x="205" y="1000" width="1095" height="10" as="geometry" />
        </mxCell>
        <mxCell id="e-P1rU9MizuhL_VrLOLM-95" value="" style="endArrow=none;html=1;rounded=0;entryX=0.5;entryY=0;entryDx=0;entryDy=0;exitX=0.5;exitY=1;exitDx=0;exitDy=0;strokeColor=#247404;strokeWidth=2;" edge="1" parent="Xjx0grxreHXb90qruqwC-2">
          <mxGeometry width="50" height="50" relative="1" as="geometry">
            <mxPoint x="471.73" y="1300" as="sourcePoint" />
            <mxPoint x="471.73" y="710" as="targetPoint" />
          </mxGeometry>
        </mxCell>
        <mxCell id="e-P1rU9MizuhL_VrLOLM-96" value="" style="endArrow=none;html=1;rounded=0;entryX=0.5;entryY=0;entryDx=0;entryDy=0;exitX=0.5;exitY=1;exitDx=0;exitDy=0;strokeColor=#247404;strokeWidth=2;" edge="1" parent="Xjx0grxreHXb90qruqwC-2">
          <mxGeometry width="50" height="50" relative="1" as="geometry">
            <mxPoint x="754" y="1300" as="sourcePoint" />
            <mxPoint x="754" y="710" as="targetPoint" />
          </mxGeometry>
        </mxCell>
        <mxCell id="e-P1rU9MizuhL_VrLOLM-97" value="" style="endArrow=none;html=1;rounded=0;entryX=0.5;entryY=0;entryDx=0;entryDy=0;exitX=0.5;exitY=1;exitDx=0;exitDy=0;strokeColor=#247404;strokeWidth=2;" edge="1" parent="Xjx0grxreHXb90qruqwC-2">
          <mxGeometry width="50" height="50" relative="1" as="geometry">
            <mxPoint x="1025" y="1300" as="sourcePoint" />
            <mxPoint x="1025" y="710" as="targetPoint" />
          </mxGeometry>
        </mxCell>
        <mxCell id="e-P1rU9MizuhL_VrLOLM-98" value="" style="ellipse;whiteSpace=wrap;html=1;aspect=fixed;fillColor=#bac8d3;strokeColor=none;container=0;" vertex="1" parent="Xjx0grxreHXb90qruqwC-2">
          <mxGeometry x="295" y="760" width="100" height="100" as="geometry" />
        </mxCell>
        <mxCell id="e-P1rU9MizuhL_VrLOLM-99" value="" style="ellipse;whiteSpace=wrap;html=1;aspect=fixed;fillColor=#bac8d3;strokeColor=none;container=0;" vertex="1" parent="Xjx0grxreHXb90qruqwC-2">
          <mxGeometry x="565" y="760" width="100" height="100" as="geometry" />
        </mxCell>
        <mxCell id="e-P1rU9MizuhL_VrLOLM-100" value="" style="ellipse;whiteSpace=wrap;html=1;aspect=fixed;fillColor=#bac8d3;strokeColor=none;container=0;" vertex="1" parent="Xjx0grxreHXb90qruqwC-2">
          <mxGeometry x="845" y="760" width="100" height="100" as="geometry" />
        </mxCell>
        <mxCell id="e-P1rU9MizuhL_VrLOLM-101" value="" style="ellipse;whiteSpace=wrap;html=1;aspect=fixed;fillColor=#bac8d3;strokeColor=none;container=0;" vertex="1" parent="Xjx0grxreHXb90qruqwC-2">
          <mxGeometry x="1115" y="760" width="100" height="100" as="geometry" />
        </mxCell>
        <mxCell id="e-P1rU9MizuhL_VrLOLM-102" value="" style="ellipse;whiteSpace=wrap;html=1;aspect=fixed;fillColor=#bac8d3;strokeColor=none;container=0;" vertex="1" parent="Xjx0grxreHXb90qruqwC-2">
          <mxGeometry x="295" y="1050" width="100" height="100" as="geometry" />
        </mxCell>
        <mxCell id="e-P1rU9MizuhL_VrLOLM-103" value="" style="ellipse;whiteSpace=wrap;html=1;aspect=fixed;fillColor=#bac8d3;strokeColor=none;container=0;" vertex="1" parent="Xjx0grxreHXb90qruqwC-2">
          <mxGeometry x="565" y="1050" width="100" height="100" as="geometry" />
        </mxCell>
        <mxCell id="e-P1rU9MizuhL_VrLOLM-104" value="" style="ellipse;whiteSpace=wrap;html=1;aspect=fixed;fillColor=#bac8d3;strokeColor=none;container=0;" vertex="1" parent="Xjx0grxreHXb90qruqwC-2">
          <mxGeometry x="845" y="1050" width="100" height="100" as="geometry" />
        </mxCell>
        <mxCell id="e-P1rU9MizuhL_VrLOLM-105" value="" style="ellipse;whiteSpace=wrap;html=1;aspect=fixed;fillColor=#bac8d3;strokeColor=none;container=0;" vertex="1" parent="Xjx0grxreHXb90qruqwC-2">
          <mxGeometry x="1115" y="1050" width="100" height="100" as="geometry" />
        </mxCell>
        <mxCell id="e-P1rU9MizuhL_VrLOLM-106" value="&lt;p style=&quot;line-height: 70%; font-size: 19px;&quot;&gt;&lt;span style=&quot;color: rgb(0, 0, 0); font-family: Montserrat; font-style: normal; font-variant-ligatures: normal; font-variant-caps: normal; letter-spacing: normal; orphans: 2; text-indent: 0px; text-transform: none; widows: 2; word-spacing: 0px; -webkit-text-stroke-width: 0px; white-space: normal; text-decoration-thickness: initial; text-decoration-style: initial; text-decoration-color: initial; float: none; font-size: 19px; display: inline !important;&quot;&gt;&lt;b style=&quot;font-size: 19px;&quot;&gt;&lt;font style=&quot;font-size: 19px;&quot;&gt;Buying and&amp;nbsp;&lt;/font&gt;&lt;/b&gt;&lt;/span&gt;&lt;/p&gt;&lt;p style=&quot;line-height: 70%; font-size: 19px;&quot;&gt;&lt;font style=&quot;font-size: 19px;&quot;&gt;&lt;span style=&quot;color: rgb(0, 0, 0); font-family: Montserrat; font-style: normal; font-variant-ligatures: normal; font-variant-caps: normal; letter-spacing: normal; orphans: 2; text-indent: 0px; text-transform: none; widows: 2; word-spacing: 0px; -webkit-text-stroke-width: 0px; white-space: normal; text-decoration-thickness: initial; text-decoration-style: initial; text-decoration-color: initial; float: none; font-size: 19px; display: inline !important;&quot;&gt;&lt;b style=&quot;font-size: 19px;&quot;&gt;&lt;font style=&quot;font-size: 19px;&quot;&gt;selling&amp;nbsp;&lt;/font&gt;&lt;/b&gt;&lt;/span&gt;&lt;b style=&quot;font-family: Montserrat; background-color: initial; font-size: 19px;&quot;&gt;&lt;font style=&quot;font-size: 19px;&quot;&gt;property&lt;/font&gt;&lt;/b&gt;&lt;/font&gt;&lt;/p&gt;" style="text;whiteSpace=wrap;html=1;align=center;verticalAlign=middle;container=0;fontSize=19;" vertex="1" parent="Xjx0grxreHXb90qruqwC-2">
          <mxGeometry x="232.5" y="870" width="225" height="80" as="geometry" />
        </mxCell>
        <mxCell id="e-P1rU9MizuhL_VrLOLM-107" value="&lt;font color=&quot;#247404&quot; style=&quot;font-size: 15px;&quot;&gt;&lt;b style=&quot;&quot;&gt;Find out more&lt;/b&gt;&lt;/font&gt;" style="rounded=1;fillColor=none;strokeColor=none;html=1;whiteSpace=wrap;fontColor=#ffffff;align=center;verticalAlign=middle;fontStyle=0;fontSize=12;sketch=0;fontFamily=Montserrat;fontSource=https%3A%2F%2Ffonts.googleapis.com%2Fcss%3Ffamily%3DMontserrat;strokeWidth=2;container=0;" vertex="1" parent="Xjx0grxreHXb90qruqwC-2">
          <mxGeometry x="287" y="940" width="115" height="49" as="geometry" />
        </mxCell>
        <mxCell id="e-P1rU9MizuhL_VrLOLM-108" value="" style="line;strokeWidth=2;rotatable=0;dashed=0;labelPosition=right;align=left;verticalAlign=middle;spacingTop=0;spacingLeft=6;points=[];portConstraint=eastwest;strokeColor=#247404;container=0;" vertex="1" parent="Xjx0grxreHXb90qruqwC-2">
          <mxGeometry x="285" y="976" width="120" height="10" as="geometry" />
        </mxCell>
        <mxCell id="e-P1rU9MizuhL_VrLOLM-112" value="&lt;p style=&quot;line-height: 150%; font-size: 19px;&quot;&gt;&lt;font face=&quot;Montserrat&quot;&gt;&lt;b&gt;Preparing to enter a relationship/marriage&lt;/b&gt;&lt;/font&gt;&lt;/p&gt;" style="text;whiteSpace=wrap;html=1;align=center;verticalAlign=middle;container=0;fontSize=19;" vertex="1" parent="Xjx0grxreHXb90qruqwC-2">
          <mxGeometry x="521.25" y="870" width="188.75" height="80" as="geometry" />
        </mxCell>
        <mxCell id="e-P1rU9MizuhL_VrLOLM-113" value="&lt;font color=&quot;#247404&quot; style=&quot;font-size: 15px;&quot;&gt;&lt;b style=&quot;&quot;&gt;Find out more&lt;/b&gt;&lt;/font&gt;" style="rounded=1;fillColor=none;strokeColor=none;html=1;whiteSpace=wrap;fontColor=#ffffff;align=center;verticalAlign=middle;fontStyle=0;fontSize=12;sketch=0;fontFamily=Montserrat;fontSource=https%3A%2F%2Ffonts.googleapis.com%2Fcss%3Ffamily%3DMontserrat;strokeWidth=2;container=0;" vertex="1" parent="Xjx0grxreHXb90qruqwC-2">
          <mxGeometry x="557" y="940" width="115" height="49" as="geometry" />
        </mxCell>
        <mxCell id="e-P1rU9MizuhL_VrLOLM-114" value="" style="line;strokeWidth=2;rotatable=0;dashed=0;labelPosition=right;align=left;verticalAlign=middle;spacingTop=0;spacingLeft=6;points=[];portConstraint=eastwest;strokeColor=#247404;container=0;" vertex="1" parent="Xjx0grxreHXb90qruqwC-2">
          <mxGeometry x="555" y="976" width="120" height="10" as="geometry" />
        </mxCell>
        <mxCell id="e-P1rU9MizuhL_VrLOLM-115" value="&lt;p style=&quot;line-height: 150%; font-size: 19px;&quot;&gt;&lt;font face=&quot;Montserrat&quot;&gt;&lt;b&gt;Divorce or separation&lt;/b&gt;&lt;/font&gt;&lt;/p&gt;" style="text;whiteSpace=wrap;html=1;align=center;verticalAlign=middle;container=0;fontSize=19;" vertex="1" parent="Xjx0grxreHXb90qruqwC-2">
          <mxGeometry x="782.5" y="870" width="225" height="80" as="geometry" />
        </mxCell>
        <mxCell id="e-P1rU9MizuhL_VrLOLM-116" value="&lt;font color=&quot;#247404&quot; style=&quot;font-size: 15px;&quot;&gt;&lt;b style=&quot;&quot;&gt;Find out more&lt;/b&gt;&lt;/font&gt;" style="rounded=1;fillColor=none;strokeColor=none;html=1;whiteSpace=wrap;fontColor=#ffffff;align=center;verticalAlign=middle;fontStyle=0;fontSize=12;sketch=0;fontFamily=Montserrat;fontSource=https%3A%2F%2Ffonts.googleapis.com%2Fcss%3Ffamily%3DMontserrat;strokeWidth=2;container=0;" vertex="1" parent="Xjx0grxreHXb90qruqwC-2">
          <mxGeometry x="837" y="940" width="115" height="49" as="geometry" />
        </mxCell>
        <mxCell id="e-P1rU9MizuhL_VrLOLM-117" value="" style="line;strokeWidth=2;rotatable=0;dashed=0;labelPosition=right;align=left;verticalAlign=middle;spacingTop=0;spacingLeft=6;points=[];portConstraint=eastwest;strokeColor=#247404;container=0;" vertex="1" parent="Xjx0grxreHXb90qruqwC-2">
          <mxGeometry x="835" y="976" width="120" height="10" as="geometry" />
        </mxCell>
        <mxCell id="e-P1rU9MizuhL_VrLOLM-118" value="&lt;p style=&quot;line-height: 150%; font-size: 19px;&quot;&gt;&lt;font face=&quot;Montserrat&quot;&gt;&lt;b&gt;Setting up a business&lt;/b&gt;&lt;/font&gt;&lt;/p&gt;" style="text;whiteSpace=wrap;html=1;align=center;verticalAlign=middle;container=0;fontSize=19;" vertex="1" parent="Xjx0grxreHXb90qruqwC-2">
          <mxGeometry x="1065.75" y="1160" width="197.5" height="80" as="geometry" />
        </mxCell>
        <mxCell id="e-P1rU9MizuhL_VrLOLM-119" value="&lt;font color=&quot;#247404&quot; style=&quot;font-size: 15px;&quot;&gt;&lt;b style=&quot;&quot;&gt;Find out more&lt;/b&gt;&lt;/font&gt;" style="rounded=1;fillColor=none;strokeColor=none;html=1;whiteSpace=wrap;fontColor=#ffffff;align=center;verticalAlign=middle;fontStyle=0;fontSize=12;sketch=0;fontFamily=Montserrat;fontSource=https%3A%2F%2Ffonts.googleapis.com%2Fcss%3Ffamily%3DMontserrat;strokeWidth=2;container=0;" vertex="1" parent="Xjx0grxreHXb90qruqwC-2">
          <mxGeometry x="1107" y="937" width="115" height="49" as="geometry" />
        </mxCell>
        <mxCell id="e-P1rU9MizuhL_VrLOLM-120" value="" style="line;strokeWidth=2;rotatable=0;dashed=0;labelPosition=right;align=left;verticalAlign=middle;spacingTop=0;spacingLeft=6;points=[];portConstraint=eastwest;strokeColor=#247404;container=0;" vertex="1" parent="Xjx0grxreHXb90qruqwC-2">
          <mxGeometry x="1105" y="973" width="120" height="10" as="geometry" />
        </mxCell>
        <mxCell id="e-P1rU9MizuhL_VrLOLM-121" value="&lt;p style=&quot;line-height: 150%; font-size: 19px;&quot;&gt;&lt;font face=&quot;Montserrat&quot;&gt;&lt;b&gt;Immigrating to Australia&lt;/b&gt;&lt;/font&gt;&lt;/p&gt;" style="text;whiteSpace=wrap;html=1;align=center;verticalAlign=middle;container=0;fontSize=19;" vertex="1" parent="Xjx0grxreHXb90qruqwC-2">
          <mxGeometry x="232.5" y="1160" width="225" height="80" as="geometry" />
        </mxCell>
        <mxCell id="e-P1rU9MizuhL_VrLOLM-122" value="&lt;font color=&quot;#247404&quot; style=&quot;font-size: 15px;&quot;&gt;&lt;b style=&quot;&quot;&gt;Find out more&lt;/b&gt;&lt;/font&gt;" style="rounded=1;fillColor=none;strokeColor=none;html=1;whiteSpace=wrap;fontColor=#ffffff;align=center;verticalAlign=middle;fontStyle=0;fontSize=12;sketch=0;fontFamily=Montserrat;fontSource=https%3A%2F%2Ffonts.googleapis.com%2Fcss%3Ffamily%3DMontserrat;strokeWidth=2;container=0;" vertex="1" parent="Xjx0grxreHXb90qruqwC-2">
          <mxGeometry x="287" y="1230" width="115" height="49" as="geometry" />
        </mxCell>
        <mxCell id="e-P1rU9MizuhL_VrLOLM-123" value="" style="line;strokeWidth=2;rotatable=0;dashed=0;labelPosition=right;align=left;verticalAlign=middle;spacingTop=0;spacingLeft=6;points=[];portConstraint=eastwest;strokeColor=#247404;container=0;" vertex="1" parent="Xjx0grxreHXb90qruqwC-2">
          <mxGeometry x="285" y="1266" width="120" height="10" as="geometry" />
        </mxCell>
        <mxCell id="e-P1rU9MizuhL_VrLOLM-124" value="&lt;p style=&quot;line-height: 70%; font-size: 19px;&quot;&gt;&lt;font face=&quot;Montserrat&quot;&gt;&lt;b&gt;Planning an estate&lt;/b&gt;&lt;/font&gt;&lt;/p&gt;" style="text;whiteSpace=wrap;html=1;align=center;verticalAlign=middle;container=0;fontSize=19;" vertex="1" parent="Xjx0grxreHXb90qruqwC-2">
          <mxGeometry x="502" y="1160" width="225" height="80" as="geometry" />
        </mxCell>
        <mxCell id="e-P1rU9MizuhL_VrLOLM-125" value="&lt;font color=&quot;#247404&quot; style=&quot;font-size: 15px;&quot;&gt;&lt;b style=&quot;&quot;&gt;Find out more&lt;/b&gt;&lt;/font&gt;" style="rounded=1;fillColor=none;strokeColor=none;html=1;whiteSpace=wrap;fontColor=#ffffff;align=center;verticalAlign=middle;fontStyle=0;fontSize=12;sketch=0;fontFamily=Montserrat;fontSource=https%3A%2F%2Ffonts.googleapis.com%2Fcss%3Ffamily%3DMontserrat;strokeWidth=2;container=0;" vertex="1" parent="Xjx0grxreHXb90qruqwC-2">
          <mxGeometry x="556.5" y="1230" width="115" height="49" as="geometry" />
        </mxCell>
        <mxCell id="e-P1rU9MizuhL_VrLOLM-126" value="" style="line;strokeWidth=2;rotatable=0;dashed=0;labelPosition=right;align=left;verticalAlign=middle;spacingTop=0;spacingLeft=6;points=[];portConstraint=eastwest;strokeColor=#247404;container=0;" vertex="1" parent="Xjx0grxreHXb90qruqwC-2">
          <mxGeometry x="554.5" y="1266" width="120" height="10" as="geometry" />
        </mxCell>
        <mxCell id="e-P1rU9MizuhL_VrLOLM-127" value="&lt;p style=&quot;line-height: 150%; font-size: 19px;&quot;&gt;&lt;font face=&quot;Montserrat&quot;&gt;&lt;b&gt;Drafting contracts&lt;/b&gt;&lt;/font&gt;&lt;/p&gt;" style="text;whiteSpace=wrap;html=1;align=center;verticalAlign=middle;container=0;fontSize=19;" vertex="1" parent="Xjx0grxreHXb90qruqwC-2">
          <mxGeometry x="782.5" y="1160" width="225" height="80" as="geometry" />
        </mxCell>
        <mxCell id="e-P1rU9MizuhL_VrLOLM-128" value="&lt;font color=&quot;#247404&quot; style=&quot;font-size: 15px;&quot;&gt;&lt;b style=&quot;&quot;&gt;Find out more&lt;/b&gt;&lt;/font&gt;" style="rounded=1;fillColor=none;strokeColor=none;html=1;whiteSpace=wrap;fontColor=#ffffff;align=center;verticalAlign=middle;fontStyle=0;fontSize=12;sketch=0;fontFamily=Montserrat;fontSource=https%3A%2F%2Ffonts.googleapis.com%2Fcss%3Ffamily%3DMontserrat;strokeWidth=2;container=0;" vertex="1" parent="Xjx0grxreHXb90qruqwC-2">
          <mxGeometry x="837" y="1230" width="115" height="49" as="geometry" />
        </mxCell>
        <mxCell id="e-P1rU9MizuhL_VrLOLM-129" value="" style="line;strokeWidth=2;rotatable=0;dashed=0;labelPosition=right;align=left;verticalAlign=middle;spacingTop=0;spacingLeft=6;points=[];portConstraint=eastwest;strokeColor=#247404;container=0;" vertex="1" parent="Xjx0grxreHXb90qruqwC-2">
          <mxGeometry x="835" y="1266" width="120" height="10" as="geometry" />
        </mxCell>
        <mxCell id="e-P1rU9MizuhL_VrLOLM-131" value="&lt;font color=&quot;#247404&quot; style=&quot;font-size: 15px;&quot;&gt;&lt;b style=&quot;&quot;&gt;Find out more&lt;/b&gt;&lt;/font&gt;" style="rounded=1;fillColor=none;strokeColor=none;html=1;whiteSpace=wrap;fontColor=#ffffff;align=center;verticalAlign=middle;fontStyle=0;fontSize=12;sketch=0;fontFamily=Montserrat;fontSource=https%3A%2F%2Ffonts.googleapis.com%2Fcss%3Ffamily%3DMontserrat;strokeWidth=2;container=0;" vertex="1" parent="Xjx0grxreHXb90qruqwC-2">
          <mxGeometry x="1107" y="1230" width="115" height="49" as="geometry" />
        </mxCell>
        <mxCell id="e-P1rU9MizuhL_VrLOLM-132" value="" style="line;strokeWidth=2;rotatable=0;dashed=0;labelPosition=right;align=left;verticalAlign=middle;spacingTop=0;spacingLeft=6;points=[];portConstraint=eastwest;strokeColor=#247404;container=0;" vertex="1" parent="Xjx0grxreHXb90qruqwC-2">
          <mxGeometry x="1105" y="1266" width="120" height="10" as="geometry" />
        </mxCell>
        <mxCell id="e-P1rU9MizuhL_VrLOLM-133" value="&lt;p style=&quot;line-height: 150%; font-size: 19px;&quot;&gt;&lt;font face=&quot;Montserrat&quot;&gt;&lt;b&gt;Resolving civil disputes&lt;/b&gt;&lt;/font&gt;&lt;/p&gt;" style="text;whiteSpace=wrap;html=1;align=center;verticalAlign=middle;container=0;fontSize=19;" vertex="1" parent="Xjx0grxreHXb90qruqwC-2">
          <mxGeometry x="1052.5" y="870" width="225" height="80" as="geometry" />
        </mxCell>
      </root>
    </mxGraphModel>
  </diagram>
</mxfile>
